<svg xmlns="http://www.w3.org/2000/svg" viewBox="0 0 313 36">
	<style>
		.st0{filter:url(#Adobe_OpacityMaskFilter);} .st1{fill:#FFFFFF;} .st2{mask:url(#mask-2);fill:#128842;} .st3{filter:url(#Adobe_OpacityMaskFilter_1_);} .st4{mask:url(#mask-4);fill:#128842;} .st5{fill:#128842;} .st6{filter:url(#Adobe_OpacityMaskFilter_2_);} .st7{mask:url(#mask-6);fill:#128842;}
	</style>
	<g id="Page-1_1_">
		<g id="Startsida">
			<g id="Top_Framework">
				<g id="Page-1">
					<g id="Group-3">
						<defs>
							<filter id="Adobe_OpacityMaskFilter" filterUnits="userSpaceOnUse" x="0" y=".4" width="25.6" height="35.6">
								<feColorMatrix values="1 0 0 0 0 0 1 0 0 0 0 0 1 0 0 0 0 0 1 0"/>
							</filter>
						</defs>
						<mask maskUnits="userSpaceOnUse" x="0" y=".4" width="25.6" height="35.6" id="mask-2">
							<g class="st0">
								<path id="path-1" class="st1" d="M0 .4v35.5h25.6V.4z"/>
							</g>
						</mask>
						<path id="Fill-1" class="st2" d="M12.6 35.9C4.3 35.9.6 33.8 0 25.3V25c-.1-1.1.8-2 1.8-2s1.7.5 2 1.5c.2.9.2 1.8.4 2.8 1.2 4.7 3.9 5.3 8.4 5.3 5 0 9.2-.8 9.2-6.9 0-5.8-4.4-5.8-8.8-6.4C6.6 18.5.9 18 .9 9.9.9 2 6 .4 12.7.4c6.4 0 10.4 1.4 11.8 7 .1.2.1.4.1.6 0 1.1-.8 1.8-1.8 1.8-2.2.1-1.9-2.6-3.4-4.1-1.5-1.5-4.2-2.1-6.8-2.1-4 0-8 .8-8 5.8 0 11.9 20.9.1 20.9 16.2.1 8.9-5.3 10.3-12.9 10.3"/>
					</g>
					<g id="Group-6" transform="translate(26 4)">
						<defs>
							<filter id="Adobe_OpacityMaskFilter_1_" filterUnits="userSpaceOnUse" x=".1" y=".3" width="15.6" height="31.7">
								<feColorMatrix values="1 0 0 0 0 0 1 0 0 0 0 0 1 0 0 0 0 0 1 0"/>
							</filter>
						</defs>
						<mask maskUnits="userSpaceOnUse" x=".1" y=".3" width="15.6" height="31.7" id="mask-4">
							<g class="st3">
								<path id="path-3" class="st1" d="M.1 32h15.6V.3H.1z"/>
							</g>
						</mask>
						<path id="Fill-4" class="st4" d="M10.3 32c-4.4 0-6.4-2.3-6.4-6.6v-14H1.7c-.8 0-1.6-.7-1.6-1.5s.7-1.6 1.6-1.6H4V2.1C4 1.1 4.8.3 5.8.3s1.8.8 1.8 1.8v6.4h5.5c.8 0 1.6.7 1.6 1.6 0 .8-.7 1.5-1.6 1.5H7.6v12.9c0 2.6.3 4.8 3.5 4.8 1.2 0 2.4-.4 3.1-.4.8 0 1.4.6 1.4 1.4.1 1.6-4 1.7-5.3 1.7"/>
					</g>
					<path id="Fill-7" class="st5" d="M54 14.3c-6.5 0-7.1 3.4-7.1 9.3s.6 9.2 7.1 9.2c6.4 0 7-3.4 7-9.2s-.6-9.3-7-9.3M54 36c-8.8 0-11-4.5-11-12.5S45.2 11 54 11c8.7 0 11 4.6 11 12.5 0 8-2.2 12.5-11 12.5"/>
					<path id="Fill-9" class="st5" d="M78.3 36C70.1 36 68 30.9 68 23.2 68 15.8 70.4 11 78.3 11c4.7 0 8.9 1.3 9.6 6.7.2 1.6-.8 2-1.9 2-2.7 0 0-5.4-7.6-5.4-6 0-6.6 3.7-6.6 9 0 5.1.8 9.5 6.8 9.5 2.8 0 5.2-1.1 6.1-4.2.2-.8.7-1.5 1.6-1.5.9 0 2 .9 1.8 1.9-1 4.8-4.8 7-9.8 7"/>
					<path id="Fill-11" class="st5" d="M109.2 36c-3.5 0-2.4-10.4-13.4-10.8V34c0 1.1-.8 2.1-1.8 2.1-1.1 0-1.9-1-1.9-2.1V2.1C92 1 92.8 0 93.8 0c1.1 0 1.9 1 1.9 2.1V21l10.6-9.2c.7-.7 1.2-.7 1.8-.7.9 0 1.5.6 1.5 1.6 0 .5-.2 1.1-.6 1.4l-10.3 8.3c7.1.9 9.2 4.9 12 10.9.1.3.2.6.2 1 .1.8-.7 1.7-1.7 1.7"/>
					<path id="Fill-13" class="st5" d="M131.2 36c-1.1 0-1.9-1-1.9-2.1V19.8c0-4-1.5-5.3-5.3-5.3-4.7 0-6.4 2.4-6.4 7.1V34c0 1.1-.7 2.1-1.8 2.1s-1.9-1-1.9-2.1V2.1c0-1.1.7-2.1 1.8-2.1s1.9 1 1.9 2.1V14c1.4-2.3 4.3-2.9 6.8-2.9 5.7 0 8.6 2.4 8.6 8.4v14.4c0 1.1-.7 2.1-1.8 2.1"/>
					<path id="Fill-15" class="st5" d="M148 14.3c-6.5 0-7.1 3.4-7.1 9.3s.6 9.2 7.1 9.2c6.4 0 7-3.4 7-9.2s-.6-9.3-7-9.3m0 21.7c-8.8 0-11-4.5-11-12.5S139.2 11 148 11c8.7 0 11 4.6 11 12.5 0 8-2.2 12.5-11 12.5"/>
					<path id="Fill-17" class="st5" d="M165 36c-1.2 0-2-1-2-2.1V2.1c0-1.1.8-2.1 2-2.1s2 1 2 2.1V34c0 1-.8 2-2 2"/>
					<path id="Fill-19" class="st5" d="M202.1 36c-1.1 0-1.9-1-1.9-2.1V20.1c0-3.5-.6-5.7-4.5-5.7-4.5 0-6.4 2.7-6.4 7v12.4c0 1.1-.8 2.1-1.8 2.1-1.1 0-1.9-1-1.9-2.1V20c0-3.6-.6-5.5-4.6-5.5-4.4 0-6.4 3-6.4 7.2v12.2c0 1.1-.7 2.1-1.8 2.1s-1.9-1-1.9-2.1V13.1c0-1.1.7-2.1 1.8-2.1 2 0 1.9 2 1.9 3.4 1.4-2.4 4.3-3.4 6.9-3.4 2.8 0 6 1 6.9 4.1 1.6-2.9 4.6-4.1 7.8-4.1 5.8 0 7.7 3.2 7.7 8.7v14.2c.1 1.1-.7 2.1-1.8 2.1"/>
					<path id="Fill-21" class="st5" d="M217.5 36c-4.3 0-8.3-1.2-9.4-5.9v-.5c0-1 .8-1.7 1.7-1.7 2.5 0 .8 4.9 8 4.9 3 0 5.8-.2 5.8-4 0-3.7-2.6-3.7-5.5-4-4.5-.5-9.5-.7-9.5-6.7s4.3-7.1 9.2-7.1c3.6 0 7.7 1 8.9 5v.5c0 .9-.8 1.6-1.7 1.6-2.6 0-.4-3.9-7.2-3.9-2.5 0-5.6.6-5.7 3.2-.1 3.4 2 3.6 4.8 4 4.9.6 10.3.3 10.3 7-.2 6-4.9 7.6-9.7 7.6"/>
					<path id="Fill-23" class="st5" d="M247.2 36c-1.1 0-1.9-1-1.9-2.1V19.8c0-4-1.5-5.3-5.3-5.3-4.7 0-6.4 2.4-6.4 7.1V34c0 1.1-.7 2.1-1.8 2.1s-1.9-1-1.9-2.1V2.1c0-1.1.7-2.1 1.8-2.1s1.9 1 1.9 2.1V14c1.4-2.3 4.3-2.9 6.8-2.9 5.7 0 8.6 2.4 8.6 8.4v14.4c0 1.1-.7 2.1-1.8 2.1"/>
					<path id="Fill-25" class="st5" d="M264.3 14.3c-4.9 0-6.8 1.6-7.2 6.9H271c-.2-5.2-1.7-6.9-6.7-6.9m8.4 9.8H257c.2 5 1.6 8.6 7.4 8.6 3.9 0 5.1-1 6.3-3.6.4-.9.7-1.5 1.9-1.5 1.3 0 1.9.9 1.7 1.9-1.1 4.2-4.4 6.3-9.8 6.4-8.8 0-11.4-5-11.4-12.7 0-7.5 2.6-12.3 11.2-12.3 7.6 0 10.8 4.3 10.8 11-.1 1.9-.7 2.2-2.4 2.2"/>
					<g id="Group-29" transform="translate(279 11)">
						<defs>
							<filter id="Adobe_OpacityMaskFilter_2_" filterUnits="userSpaceOnUse" x=".4" y=".1" width="33.6" height="24.8">
								<feColorMatrix values="1 0 0 0 0 0 1 0 0 0 0 0 1 0 0 0 0 0 1 0"/>
							</filter>
						</defs>
						<mask maskUnits="userSpaceOnUse" x=".4" y=".1" width="33.6" height="24.8" id="mask-6">
							<g class="st6">
								<path id="path-5" class="st1" d="M33.9 24.9V.1H.4v24.8z"/>
							</g>
						</mask>
						<path id="Fill-27" class="st7" d="M32.1 24.9c-1.1 0-1.9-1-1.9-2.1V9.2c0-3.5-.6-5.6-4.6-5.6-4.6 0-6.5 2.7-6.5 7V23c0 1.1-.8 2.1-1.9 2.1-1.1 0-1.9-1-1.9-2.1V9c0-3.6-.6-5.5-4.6-5.5-4.5 0-6.5 3-6.5 7.2v12.2c0 1.1-.8 2.1-1.9 2.1-1.1 0-1.9-1-1.9-2.1V2.2C.4 1.1 1.2.1 2.3.1c2 0 1.9 2 1.9 3.4C5.6 1.1 8.5.1 11.3.1c2.9 0 6.1 1 7 4.1C19.9 1.3 23 .1 26.2.1 32.1.1 34 3.3 34 8.7v14.1c-.1 1.1-.8 2.1-1.9 2.1"/>
					</g>
				</g>
			</g>
		</g>
	</g>
</svg>