<svg xmlns="http://www.w3.org/2000/svg" viewBox="0 0 1330 895" width="743" height="500">
	<style>
		tspan { white-space:pre }
		.shp0 { fill: #0091ad } 
		.shp1 { fill: #a9a9ad } 
	</style>
	<g id="Lager 1">
		<path id="&lt;Path&gt;" class="shp0" d="M899.86 408.35C893.89 406.94 889.38 401.67 889.38 395.36L889.38 304.44C889.38 298.12 893.89 292.86 899.86 291.69L1032.79 291.45C1097.88 291.45 1141.32 270.3 1141.32 218.28L1141.32 216.37C1141.32 170.31 1104.93 145.09 1042.33 145.09L223.57 145.08C220.96 145.07 218.37 145.71 216.04 147.06C208.06 151.66 205.91 162.84 211.21 172.02C212.66 174.54 214.44 176.54 216.65 178.31L536.56 433.96C552.75 446.9 564.33 462.67 575.62 482.21C615.39 551.05 586.22 634.79 526.51 669.24C509.08 679.3 489.85 684.04 470.39 684L29.44 684.02C22.26 684.02 16.43 678.2 16.43 671.02L16.43 573.43C16.43 566.25 22.26 560.43 29.44 560.43L441.83 560.45C444.44 560.46 447.02 559.83 449.36 558.48C457.33 553.88 459.49 542.7 454.18 533.51C452.73 531 450.95 529 448.74 527.23L128.81 271.61C112.61 258.67 101.06 242.87 89.77 223.32C50 154.49 79.17 70.75 138.89 36.29C156.32 26.24 175.54 21.5 195 21.53L1064.28 21.52C1199.92 21.52 1282.12 88.62 1282.12 191.57L1282.12 193.47C1282.12 267.61 1242.83 308.84 1195.66 335.24C1193.5 336.45 1193.69 339.05 1196 339.94C1272.66 369.25 1319.34 413.33 1319.34 501.57L1319.34 503.47C1319.34 623.36 1222.18 684.02 1071.92 684.02L663.9 684.02C656.72 684.02 650.9 678.2 650.9 671.02L650.9 306.13C650.9 298.95 656.72 293.13 663.9 293.13L761.54 293.13C768.72 293.13 774.54 298.95 774.54 306.13L774.54 560.44L1071.92 560.45C1137.18 560.45 1178.54 537.26 1178.54 485.35L1178.54 483.45C1178.54 436.42 1143.05 408.35 1067.14 408.35L899.86 408.35Z" />
		<path id="&lt;Compound Path&gt;" fill-rule="evenodd" class="shp1" d="M828.61 830.09L828.61 842.59C828.61 870.51 815.54 887.78 789.29 887.78C763.03 887.78 749.97 870.51 749.97 842.59L749.97 830.09C749.97 802.17 763.03 784.9 789.29 784.9C815.54 784.9 828.61 802.17 828.61 830.09ZM789.29 875.75C808.15 875.75 815.69 863.88 815.69 842.59L815.69 830.09C815.69 808.8 808.15 796.92 789.29 796.92C770.43 796.92 762.89 808.8 762.89 830.09L762.89 842.59C762.89 863.88 770.43 875.75 789.29 875.75Z" />
		<path id="&lt;Compound Path&gt;" fill-rule="evenodd" class="shp1" d="M262.67 829.92L262.67 834.74C262.67 838.18 259.85 840.66 256.75 840.66L198.92 840.66L198.92 841.88C198.92 870.27 212.04 875.77 228.71 875.77C236.42 875.77 246.05 874.53 254.63 872.78L255.14 872.73C255.5 872.73 255.86 872.55 256.21 872.55C259.16 872.55 261.42 874.55 261.42 877.58L261.42 878.83C261.42 882.43 259.31 884.04 256 884.7C247.27 886.52 236.9 887.79 228.71 887.79C205.4 887.79 186 877.23 186 841.88L186 830.1C186 804.63 199.13 784.91 224.6 784.91C251.2 784.91 262.67 803.81 262.67 829.92ZM249.74 828.46C249.43 807.53 242.28 796.93 224.6 796.93C207.33 796.93 199.35 808.8 198.93 828.46L249.74 828.46Z" />
		<path id="&lt;Compound Path&gt;" fill-rule="evenodd" class="shp1" d="M735.96 844.91L735.96 847.94C735.96 882.04 706.04 887.95 683.61 887.95C674.26 887.95 664.73 887.41 656.63 886.52C653.15 886.25 650.9 884.19 650.9 880.61L650.9 755.12C650.9 751.74 653.85 749.49 656.6 749.21C663.97 748.67 674.44 748.13 683.61 748.13C707.79 748.13 735.25 753.56 735.25 782.97L735.25 784.93C735.25 798.59 728.82 808.67 718.1 814.41C729.36 819.87 735.96 830.3 735.96 844.91ZM693.61 808.1C717.18 808.1 722.33 796.95 722.33 784.93L722.33 782.97C722.33 763.92 705.01 760.15 683.61 760.15C676.79 760.15 669.57 760.56 663.82 760.78L663.82 808.1L693.61 808.1ZM683.61 875.75C705.13 875.75 723.04 871.3 723.04 847.94L723.04 844.91C723.04 832.52 717.35 820.84 693.61 820.84L663.82 820.84L663.82 874.86C670.35 875.33 675.84 875.75 683.61 875.75Z" />
		<path id="&lt;Path&gt;" class="shp1" d="M63.86 811.87C83.48 823.71 96.51 833.13 96.51 851.16C96.51 868.63 88.57 887.79 52.54 887.79C40.83 887.79 31.81 886.53 24.59 885.81C21.68 885.49 19.12 883.54 19.12 880.44L19.12 878.12C19.12 874.73 21.98 873.27 25.04 873.27L25.85 873.27C35.07 873.98 42.79 875.23 52.54 875.23C78.16 875.23 83.23 864.35 83.23 851.16C83.23 840.87 77.13 836.31 69.5 831.14C66.01 828.79 61.84 826.21 56.92 823.15L45.68 816.19C29.62 806.31 16.43 797.07 16.43 779.59C16.43 753.67 39.98 748.14 60.76 748.14C70.3 748.14 79.86 749.22 87.61 749.94C90.51 750.23 92.93 752.08 92.93 755.13L92.93 757.45C92.93 760.84 90.17 762.48 87.01 762.48C83.08 762.48 69.69 760.7 60.58 760.7C37.31 760.7 29.54 767.23 29.54 779.77C29.54 789.21 36.3 795.13 52.43 804.91L63.86 811.87Z" />
		<path id="&lt;Path&gt;" class="shp1" d="M177.62 789.21C177.8 789.81 177.86 790.43 177.86 791.01C177.86 791.85 177.83 792.69 177.58 793.5L154.19 874.7C151.23 885.16 146.02 887.79 139.61 887.79C133.49 887.79 127.67 885.27 124.68 874.7L101.31 793.59C101.08 792.87 101.01 792.12 101.01 791.37C101.01 788.25 103.21 785.8 106.39 785.8L108.18 785.8C111.22 785.8 113.04 788.08 113.83 790.85L136.69 871.34C136.95 872.22 137.94 875.94 139.61 875.94C140.99 875.94 142.04 871.82 142.18 871.34L165.04 790.85C165.83 788.08 167.65 785.8 170.69 785.8L172.83 785.8C175.08 785.8 176.98 787 177.62 789.21Z" />
		<path id="&lt;Path&gt;" class="shp1" d="M292.75 790.87C301.3 787.21 310.48 784.91 319.05 784.91C337.47 784.91 353.01 795.2 353.01 821.54L353.01 880.8C353.01 883.89 350.53 886.72 347.09 886.72L345.84 886.72C342.48 886.72 340.09 883.8 340.09 880.8L340.09 821.54C340.09 802.64 330.57 796.93 318.52 796.93C310.38 796.93 301.18 799.51 292.83 803.33L292.83 880.8C292.83 883.98 290.09 886.72 286.91 886.72L285.83 886.72C282.65 886.72 279.91 883.97 279.91 880.8L279.91 791.9C279.91 788.91 281.95 785.8 285.65 785.8L287.08 785.8C290.36 785.8 292.34 788.23 292.75 790.87Z" />
		<path id="&lt;Path&gt;" class="shp1" d="M411.16 832.35C425.84 840.48 435.14 847.02 435.14 860.45C435.14 881.76 418.73 887.79 401.72 887.79C393.53 887.79 381.87 886.51 375.32 885.24C372.41 884.61 369.36 883.35 369.36 879.9L369.36 877.94C369.36 874.77 371.73 872.91 374.75 872.91L375.82 872.91L376.24 872.95C384.68 874.35 394.87 875.77 402.08 875.77C414.61 875.77 422.22 872.63 422.22 860.45C422.22 854.79 419.78 851.51 404.61 843.21C391.11 835.83 370.25 828.1 370.25 809.39C370.25 790.58 385.6 784.91 400.11 784.91C413.12 784.91 419.83 785.82 425.97 786.54C429.07 786.98 431.93 788.67 431.93 792.08L431.93 793.51C431.93 796.91 429.51 798.89 426.19 798.89L425.65 798.89C420.77 798.35 410.53 796.93 400.83 796.93C389.49 796.93 383.18 799.14 383.18 809.39C383.18 815.54 388 819.51 399.2 825.75L411.16 832.35Z" />
		<path id="&lt;Path&gt;" class="shp1" d="M516.16 881.06C516.28 881.47 516.35 881.92 516.35 882.4C516.35 885.69 513.63 887.79 510.43 887.79C507.76 887.79 505.61 887.23 503.25 884.88L464.38 843.3L464.38 880.8C464.38 883.98 461.64 886.72 458.46 886.72L457.39 886.72C454.2 886.72 451.46 883.97 451.46 880.8L451.46 754.95C451.46 751.78 454.2 749.03 457.39 749.03L458.46 749.03C461.64 749.03 464.38 751.77 464.38 754.95L464.38 824.27L504.09 787.16C505.82 785.69 508.05 784.91 510.07 784.91C513.52 784.91 516.17 787.56 516.17 790.65C516.17 792.11 515.61 793.91 514.1 795.2L472.24 833.45L514.47 878.06C515.19 878.96 515.86 879.94 516.16 881.06Z" />
		<path id="&lt;Compound Path&gt;" fill-rule="evenodd" class="shp1" d="M596.11 820.28L596.11 880.62C596.11 883.98 593.37 886.72 590.01 886.72L589.12 886.72C585.75 886.72 583.01 883.98 583.01 880.62C574.85 884.42 565.29 887.79 555.18 887.79C540.79 887.79 525.33 880.59 525.33 856.52L525.33 854.2C525.33 833.55 539.14 824.18 571.97 824.18L583.19 824.18L583.19 820.28C583.19 802.66 578.73 796.93 563.22 796.93C551.56 796.93 546.43 797.64 538.13 798.52L537.15 798.54C533.97 798.54 531.22 796.61 531.22 793.33L531.22 792.26C531.22 788.57 534.13 786.99 537.55 786.54C545.13 785.64 551.3 784.91 563.22 784.91C589.25 784.91 596.11 800.2 596.11 820.28ZM555.18 875.77C564.26 875.77 572.15 873.46 583.19 867.67L583.19 836.2L571.97 836.2C544.96 836.2 538.25 841.52 538.25 854.2L538.25 856.52C538.25 871.62 545.76 875.77 555.18 875.77Z" />
		<path id="&lt;Path&gt;" class="shp1" d="M882.27 832.34C896.94 840.47 906.25 847.01 906.25 860.44C906.25 881.75 889.84 887.78 872.82 887.78C864.64 887.78 852.97 886.5 846.42 885.23C843.52 884.61 840.47 883.34 840.47 879.89L840.47 877.93C840.47 874.76 842.84 872.9 845.86 872.9L846.93 872.9L847.35 872.93C855.78 874.34 865.97 875.75 873.18 875.75C885.72 875.75 893.33 872.62 893.33 860.44C893.33 854.78 890.89 851.5 875.72 843.2C862.22 835.82 841.36 828.09 841.36 809.38C841.36 790.57 856.71 784.9 871.21 784.9C884.22 784.9 890.94 785.81 897.08 786.53C900.17 786.97 903.04 788.66 903.04 792.07L903.04 793.5C903.04 796.9 900.62 798.88 897.29 798.88L896.76 798.88C891.88 798.34 881.64 796.92 871.93 796.92C860.59 796.92 854.28 799.13 854.28 809.38C854.28 815.53 859.11 819.5 870.3 825.74L882.27 832.34Z" />
		<path id="&lt;Path&gt;" class="shp1" d="M972.99 880.79L972.99 881.86C972.99 885.13 970.84 886.78 967.77 887.22C964.99 887.59 961.29 887.78 958.14 887.78C944.5 887.78 935.43 883.12 935.43 865.97L935.43 798.17L920.28 798.17C917.08 798.17 914.35 796.08 914.35 792.79L914.35 791C914.35 787.65 917.09 785.79 920.28 785.79L935.43 785.79L935.43 769.94C935.43 766.69 937.71 764.02 941 764.02L942.96 764.02C946.19 764.02 948.34 766.82 948.34 769.94L948.34 785.79L967.07 785.79C970.26 785.79 972.99 787.65 972.99 791L972.99 792.79C972.99 796.08 970.27 798.17 967.07 798.17L948.34 798.17L948.34 865.97C948.34 874.86 951.22 875.75 958.14 875.75L966.71 875.75C969.94 875.75 972.99 877.08 972.99 880.79Z" />
		<path id="&lt;Compound Path&gt;" fill-rule="evenodd" class="shp1" d="M1054.73 820.27L1054.73 880.61C1054.73 883.97 1051.99 886.71 1048.63 886.71L1047.74 886.71C1044.38 886.71 1041.64 883.97 1041.64 880.61C1033.48 884.41 1023.91 887.78 1013.81 887.78C999.41 887.78 983.95 880.58 983.95 856.51L983.95 854.19C983.95 833.54 997.76 824.17 1030.59 824.17L1041.81 824.17L1041.81 820.27C1041.81 802.65 1037.36 796.92 1021.85 796.92C1010.18 796.92 1005.06 797.63 996.75 798.51L995.77 798.53C992.6 798.53 989.85 796.6 989.85 793.32L989.85 792.25C989.85 788.56 992.76 786.98 996.17 786.53C1003.76 785.63 1009.92 784.9 1021.85 784.9C1047.88 784.9 1054.73 800.19 1054.73 820.27ZM1013.81 875.75C1022.89 875.75 1030.78 873.45 1041.81 867.66L1041.81 836.19L1030.59 836.19C1003.59 836.19 996.87 841.51 996.87 854.19L996.87 856.51C996.87 871.61 1004.38 875.75 1013.81 875.75ZM1040.99 751.73L1040.99 764.94C1040.99 768.39 1038.16 770.86 1035.06 770.86L1033.99 770.86C1030.89 770.86 1028.06 768.39 1028.06 764.94L1028.06 751.73C1028.06 748.55 1030.8 745.81 1033.99 745.81L1035.06 745.81C1038.24 745.81 1040.99 748.55 1040.99 751.73ZM1014.2 751.73L1014.2 764.94C1014.2 768.39 1011.37 770.86 1008.27 770.86L1007.2 770.86C1004.11 770.86 1001.28 768.39 1001.28 764.94L1001.28 751.73C1001.28 748.55 1004.02 745.81 1007.2 745.81L1008.27 745.81C1011.46 745.81 1014.2 748.55 1014.2 751.73Z" />
		<path id="&lt;Compound Path&gt;" fill-rule="evenodd" class="shp1" d="M1144.69 754.94L1144.69 878.46C1144.69 881.84 1143.29 883.51 1140.04 884.32C1132.05 885.96 1119.83 887.78 1109.48 887.78C1082.79 887.78 1071.94 868.22 1071.94 841.87L1071.94 830.09C1071.94 800.99 1084.41 784.9 1109.48 784.9C1115.65 784.9 1124.71 785.73 1131.77 787.02L1131.77 754.94C1131.77 752.14 1133.8 749.02 1137.34 749.02L1139.13 749.02C1142.66 749.02 1144.69 752.14 1144.69 754.94ZM1109.48 875.75C1117.01 875.75 1125.53 874.77 1131.77 873.81L1131.77 798.8C1125.11 797.63 1115.64 796.92 1109.48 796.92C1091.93 796.92 1084.86 807.11 1084.86 830.09L1084.86 841.87C1084.86 864.45 1091.66 875.75 1109.48 875.75Z" />
		<path id="&lt;Compound Path&gt;" fill-rule="evenodd" class="shp1" d="M1238.6 829.91L1238.6 834.73C1238.6 838.18 1235.78 840.65 1232.68 840.65L1174.85 840.65L1174.85 841.87C1174.85 870.26 1187.97 875.75 1204.64 875.75C1212.35 875.75 1221.98 874.52 1230.57 872.77L1231.07 872.72C1231.43 872.72 1231.79 872.54 1232.15 872.54C1235.09 872.54 1237.36 874.55 1237.36 877.57L1237.36 878.82C1237.36 882.41 1235.24 884.03 1231.93 884.69C1223.2 886.51 1212.83 887.78 1204.64 887.78C1181.33 887.78 1161.93 877.22 1161.93 841.87L1161.93 830.09C1161.93 804.62 1175.07 784.9 1200.54 784.9C1227.13 784.9 1238.6 803.8 1238.6 829.91ZM1225.67 828.45C1225.36 807.52 1218.21 796.92 1200.54 796.92C1183.26 796.92 1175.28 808.79 1174.87 828.45L1225.67 828.45Z" />
		<path id="&lt;Path&gt;" class="shp1" d="M1268.72 791.16C1276.39 786.77 1283.02 784.9 1291.05 784.9C1294.45 784.9 1298.41 785.81 1298.41 790.11L1298.41 791.54C1298.41 795.78 1294.77 796.92 1291.05 796.92C1285.04 796.92 1278.31 798.25 1268.76 804.02L1268.76 880.79C1268.76 883.97 1266.02 886.71 1262.84 886.71L1261.77 886.71C1258.58 886.71 1255.84 883.96 1255.84 880.79L1255.84 791.89C1255.84 788.9 1257.88 785.79 1261.58 785.79L1263.01 785.79C1266.41 785.79 1268.42 788.41 1268.72 791.16Z" />
	</g>
</svg>